HIERARCHY
ROOT Pelvis
{
	OFFSET 0.000000 0.000000 0.000000
	CHANNELS 6 Xposition Yposition Zposition Xrotation Yrotation Zrotation
	JOINT LeftUpLeg_virtual
	{
		OFFSET 0.000000 0.000000 0.000000
		CHANNELS 3 Xrotation Yrotation Zrotation
		JOINT LeftUpLeg
		{
			OFFSET 18.735201 -5.666702 -4.541200
			CHANNELS 3 Xrotation Yrotation Zrotation
			JOINT LeftLeg
			{
				OFFSET -0.021200 -31.938179 0.493100
				CHANNELS 3 Xrotation Yrotation Zrotation
				JOINT LeftFoot
				{
					OFFSET 0.021200 -31.938179 -4.336299
					CHANNELS 3 Xrotation Yrotation Zrotation
					JOINT LeftToeBase
					{
						OFFSET 0.943001 -26.722000 15.023500
						CHANNELS 3 Xrotation Yrotation Zrotation
						End Site
						{
							OFFSET 0 0 0
						}
					}
				}
			}
		}
	}
	JOINT RightUpLeg_virtual
	{
		OFFSET 0.000000 0.000000 0.000000
		CHANNELS 3 Xrotation Yrotation Zrotation
		JOINT RightUpLeg
		{
			OFFSET -18.735201 -5.666702 -4.541200
			CHANNELS 3 Xrotation Yrotation Zrotation
			JOINT RightLeg
			{
				OFFSET 0.018946 -31.938133 0.493100
				CHANNELS 3 Xrotation Yrotation Zrotation
				JOINT RightFoot
				{
					OFFSET -0.018946 -31.938126 -4.336299
					CHANNELS 3 Xrotation Yrotation Zrotation
					JOINT RightToeBase
					{
						OFFSET -0.943001 -26.722004 15.023500
						CHANNELS 3 Xrotation Yrotation Zrotation
						End Site
						{
							OFFSET 0 0 0
						}
					}
				}
			}
		}
	}
	JOINT Hips_virtual
	{
		OFFSET 0.000000 0.000000 0.000000
		CHANNELS 3 Xrotation Yrotation Zrotation
		JOINT Hips
		{
			OFFSET -0.000000 -0.000000 -0.000000
			CHANNELS 3 Xrotation Yrotation Zrotation
			JOINT Spine
			{
				OFFSET 0.000000 10.199997 -0.299500
				CHANNELS 3 Xrotation Yrotation Zrotation
				JOINT Spine1
				{
					OFFSET 0.000000 11.900002 -1.516600
					CHANNELS 3 Xrotation Yrotation Zrotation
					JOINT Spine2
					{
						OFFSET 0.000000 13.600006 -2.842500
						CHANNELS 3 Xrotation Yrotation Zrotation
						JOINT Neck_virtual
						{
							OFFSET 0.000000 0.000000 0.000000
							CHANNELS 3 Xrotation Yrotation Zrotation
							JOINT Neck
							{
								OFFSET 0.000000 9.624100 -2.890100
								CHANNELS 3 Xrotation Yrotation Zrotation
								JOINT Head
								{
									OFFSET 0.000000 14.068802 -1.351900
									CHANNELS 3 Xrotation Yrotation Zrotation
									End Site
									{
										OFFSET 0 0 0
									}
								}
							}
						}
						JOINT LeftShoulder_virtual
						{
							OFFSET 0.000000 0.000000 0.000000
							CHANNELS 3 Xrotation Yrotation Zrotation
							JOINT LeftShoulder
							{
								OFFSET 15.263000 10.923401 -0.547700
								CHANNELS 3 Xrotation Yrotation Zrotation
								JOINT LeftArm
								{
									OFFSET 25.438599 -2.830597 -13.032500
									CHANNELS 3 Xrotation Yrotation Zrotation
									JOINT LeftForeArm
									{
										OFFSET 29.960503 0.000000 0.000000
										CHANNELS 3 Xrotation Yrotation Zrotation
										JOINT LeftHand
										{
											OFFSET 27.849251 0.000000 0.000000
											CHANNELS 3 Xrotation Yrotation Zrotation
											End Site
											{
												OFFSET 0 0 0
											}
										}
									}
								}
							}
						}
						JOINT RightShoulder_virtual
						{
							OFFSET 0.000000 0.000000 0.000000
							CHANNELS 3 Xrotation Yrotation Zrotation
							JOINT RightShoulder
							{
								OFFSET -15.263000 10.923401 -0.547700
								CHANNELS 3 Xrotation Yrotation Zrotation
								JOINT RightArm
								{
									OFFSET -25.438599 -2.830597 -13.032500
									CHANNELS 3 Xrotation Yrotation Zrotation
									JOINT RightForeArm
									{
										OFFSET -29.960503 0.000000 0.000000
										CHANNELS 3 Xrotation Yrotation Zrotation
										JOINT RightHand
										{
											OFFSET -27.849251 0.000000 0.000000
											CHANNELS 3 Xrotation Yrotation Zrotation
											End Site
											{
												OFFSET 0 0 0
											}
										}
									}
								}
							}
						}
					}
				}
			}
		}
	}
}
MOTION
Frames: 9
Frame Time: 0.03333333
-1.701182 93.711105 2.385727 0.000000 0.000000 0.000000 2.912643 -28.993303 1.190035 -19.101882 17.307506 13.859743 23.892705 12.122892 -1.504178 -6.535999 -3.224565 -8.274173 0.000000 0.000000 0.000000 2.912643 -28.993303 1.190035 -12.318254 -0.375496 -11.129998 16.866898 9.899559 0.864967 -8.231864 -1.387175 8.929601 0.000000 0.000000 0.000000 2.912643 -28.993303 1.190035 0.000000 0.000000 0.000000 7.835976 -0.359998 -2.682278 1.099248 -0.880573 2.383465 0.000000 0.000000 0.000000 1.108680 -0.590430 2.446366 -0.922893 3.567101 -1.380649 0.000000 0.000000 0.000000 1.108680 -0.590430 2.446366 -0.057079 -8.759453 -0.061262 -55.250766 0.329468 -41.449385 11.584429 -65.827341 13.005557 0.000000 0.000000 0.000000 1.108680 -0.590430 2.446366 4.849284 7.760152 5.560463 -0.933500 -2.176883 61.845628 11.299302 18.943456 -3.987587 0.000000 0.000000 0.000000 
-1.649117 93.696030 2.350708 0.000000 0.000000 0.000000 2.891445 -29.082795 1.195400 -19.139711 17.309695 13.835887 24.010208 12.142073 -1.511875 -6.587400 -3.165275 -8.248335 0.000000 0.000000 0.000000 2.891445 -29.082795 1.195400 -12.461058 -0.329015 -11.176949 17.010393 9.893816 0.863276 -8.221368 -1.299902 8.971102 0.000000 0.000000 0.000000 2.891445 -29.082795 1.195400 0.000000 0.000001 0.000000 7.936427 -0.338678 -2.626417 1.080460 -0.850004 2.358320 0.000000 0.000000 0.000000 1.088648 -0.565127 2.416397 -0.927341 3.563791 -1.395820 0.000000 0.000000 0.000000 1.088648 -0.565127 2.416397 -0.057068 -8.759452 -0.061263 -55.271428 0.413105 -41.445216 11.503859 -65.871123 12.918191 0.000000 0.000000 0.000000 1.088648 -0.565127 2.416397 4.865853 7.713957 5.066079 -1.727482 -3.842177 62.180799 11.300533 19.067260 -3.968930 0.000000 0.000000 0.000000 
-1.589584 93.670013 2.309866 0.000000 0.000000 0.000000 2.891752 -29.199933 1.227193 -19.204747 17.314977 13.793559 24.159738 12.088756 -1.525053 -6.656170 -3.005274 -8.204785 0.000000 0.000000 0.000000 2.891752 -29.199933 1.227193 -12.698829 -0.241928 -11.247372 17.268503 9.731343 0.848087 -8.242586 -1.049504 9.054823 0.000000 0.000000 0.000000 2.891752 -29.199933 1.227193 0.000000 0.000001 0.000000 8.054642 -0.317313 -2.570821 1.045025 -0.814359 2.320277 0.000000 0.000000 0.000000 1.051746 -0.537262 2.372766 -0.930190 3.562931 -1.412066 0.000000 0.000000 0.000000 1.051746 -0.537262 2.372766 -0.056869 -8.756180 -0.061015 -55.279094 0.492951 -41.432197 11.415522 -65.915792 12.820349 0.000000 0.000000 0.000000 1.051746 -0.537262 2.372766 4.899521 7.770208 4.883302 -2.486734 -5.619533 62.291769 11.240945 19.305412 -3.821078 0.000000 0.000000 0.000000 
-1.516326 93.628456 2.261782 0.000000 0.000000 0.000000 2.912270 -29.364435 1.293500 -19.296401 17.329477 13.717698 24.359550 12.010398 -1.527795 -6.756170 -2.767567 -8.158780 0.000000 0.000000 0.000000 2.912270 -29.364435 1.293500 -13.064213 -0.110173 -11.355690 17.681680 9.460597 0.823038 -8.307853 -0.657877 9.176000 0.000000 0.000000 0.000000 2.912270 -29.364435 1.293500 0.000000 0.000001 0.000000 8.215043 -0.291695 -2.503174 0.982371 -0.769356 2.257492 0.000000 0.000000 0.000000 0.987261 -0.504674 2.302934 -0.932901 3.566206 -1.433140 0.000000 0.000000 0.000000 0.987261 -0.504674 2.302934 -0.053853 -8.693472 -0.060967 -55.250401 0.554231 -41.417488 11.247238 -65.966315 12.636396 0.000000 0.000000 0.000000 0.987261 -0.504674 2.302934 4.923733 7.918117 4.671085 -3.132925 -7.632034 62.463815 11.059120 19.707840 -3.492751 0.000000 0.000000 0.000000 
-1.408728 93.559265 2.210863 0.000000 0.000000 0.000000 2.905241 -29.658092 1.402097 -19.349950 17.358244 13.560098 24.669199 12.015966 -1.509600 -6.946651 -2.470603 -8.134031 0.000000 0.000000 0.000000 2.905241 -29.658092 1.402097 -13.623915 0.088194 -11.557747 18.384742 9.203260 0.796643 -8.461398 -0.150189 9.333364 0.000000 0.000000 0.000000 2.905241 -29.658092 1.402097 0.000000 -0.000002 0.000000 8.505460 -0.262552 -2.375619 0.868402 -0.696429 2.129975 0.000000 0.000000 0.000000 0.870420 -0.455848 2.163773 -0.937218 3.579315 -1.470007 0.000000 0.000000 0.000000 0.870420 -0.455848 2.163773 -0.049762 -8.608671 -0.060883 -55.188000 0.666066 -41.372542 11.061004 -66.061952 12.423106 0.000000 0.000000 0.000000 0.870420 -0.455848 2.163773 4.926552 8.143911 4.272906 -3.433653 -9.791454 62.874248 10.500001 20.433542 -2.575338 0.000000 0.000000 0.000000 
-1.230434 93.423370 2.142157 0.000000 0.000000 0.000000 2.961224 -30.119345 1.592825 -19.573507 17.368000 13.353360 25.328022 12.168691 -1.492446 -7.332744 -2.133290 -8.130357 0.000000 0.000000 0.000000 2.961224 -30.119345 1.592825 -14.591374 0.382978 -11.818698 19.533487 10.583681 0.892155 -8.746893 -1.075150 9.133125 0.000000 0.000000 0.000000 2.961224 -30.119345 1.592825 0.000000 0.000002 0.000000 8.951068 -0.242945 -1.974510 0.703658 -0.585262 1.832113 0.000000 0.000000 0.000000 0.705410 -0.398427 1.847528 -0.977813 3.608123 -1.569062 0.000000 0.000000 0.000000 0.705410 -0.398427 1.847528 -0.045088 -8.511554 -0.060803 -54.961467 0.953853 -41.080193 10.524780 -66.349380 11.838263 0.000000 0.000000 0.000000 0.705410 -0.398427 1.847528 4.912889 8.203516 3.322311 -3.097457 -12.067724 64.055276 9.527919 21.706935 -0.948212 0.000000 0.000000 0.000000 
-1.014273 93.253326 2.064856 0.000000 0.000000 0.000000 3.046556 -30.665989 1.818347 -19.882790 17.366436 13.130078 26.163000 12.411407 -1.480065 -7.815680 -1.788203 -8.140367 0.000000 0.000000 0.000000 3.046556 -30.665989 1.818347 -15.725056 0.723690 -12.153278 20.835490 10.926001 0.902493 -9.043192 -0.887784 9.231093 0.000000 0.000000 0.000000 3.046556 -30.665989 1.818347 0.000000 0.000000 0.000000 9.477290 -0.229050 -1.428062 0.523220 -0.455732 1.449048 0.000000 0.000000 0.000000 0.525952 -0.337827 1.442913 -1.034272 3.645525 -1.699200 0.000000 0.000000 0.000000 0.525952 -0.337827 1.442913 -0.037776 -8.420975 -0.060920 -54.622662 1.330437 -40.602804 9.694343 -66.760222 10.947842 0.000000 0.000000 0.000000 0.525952 -0.337827 1.442913 4.894754 8.134308 2.028110 -2.356101 -14.349252 65.757940 8.410254 23.219332 0.980605 0.000000 0.000000 0.000000 
-0.754791 93.048714 1.980461 0.000000 0.000000 0.000000 3.153533 -31.301569 2.062865 -20.284164 17.350400 12.910258 27.197299 12.767165 -1.483599 -8.407105 -1.458555 -8.166651 0.000000 0.000000 0.000000 3.153533 -31.301569 2.062865 -16.996886 1.094769 -12.517619 22.229226 11.330109 0.915839 -9.327177 -0.653989 9.353778 0.000000 0.000000 0.000000 3.153533 -31.301569 2.062865 0.000000 -0.000001 0.000000 10.089968 -0.222457 -0.718353 0.344402 -0.309286 0.980642 0.000000 0.000000 0.000000 0.350050 -0.276455 0.950264 -1.101848 3.693603 -1.860486 0.000000 0.000000 0.000000 0.350050 -0.276455 0.950264 -0.027689 -8.362437 -0.056705 -54.108089 1.797411 -39.815485 8.330627 -67.347871 9.511608 0.000000 0.000000 0.000000 0.350050 -0.276455 0.950264 4.868989 7.838704 0.252768 -1.066332 -16.522904 68.216883 7.304599 24.994147 3.021350 0.000000 0.000000 0.000000 
-0.405434 92.773972 1.883101 0.000000 0.000000 0.000000 3.296370 -32.117510 2.333366 -20.876904 17.309532 12.703006 28.649488 13.339950 -1.508102 -9.226805 -1.155208 -8.233093 0.000000 0.000000 0.000000 3.296370 -32.117510 2.333366 -18.549633 1.533881 -12.938586 23.830381 11.857564 0.937697 -9.601280 -0.338298 9.526849 0.000000 0.000000 0.000000 3.296370 -32.117510 2.333366 0.000000 -0.000001 0.000000 10.880449 -0.231427 0.329856 0.179506 -0.130448 0.341486 0.000000 0.000000 0.000000 0.192468 -0.215172 0.281750 -1.188395 3.764665 -2.084304 0.000000 0.000000 0.000000 0.192468 -0.215172 0.281750 -0.014239 -8.383939 -0.055466 -53.194466 2.464966 -38.334464 5.665513 -68.305020 6.743416 0.000000 0.000000 0.000000 0.192468 -0.215172 0.281750 4.824987 7.222742 -2.127285 0.929662 -18.378518 71.645037 6.500288 27.064568 4.773346 0.000000 0.000000 0.000000 
